<?xml version="1.0" standalone="no"?>
<!DOCTYPE svg PUBLIC "-//W3C//DTD SVG 20010904//EN"
 "http://www.w3.org/TR/2001/REC-SVG-20010904/DTD/svg10.dtd">
<svg version="1.0" xmlns="http://www.w3.org/2000/svg"
 width="640.000000pt" height="640.000000pt" viewBox="0 0 640.000000 640.000000"
 preserveAspectRatio="xMidYMid meet">

<g transform="translate(0.000000,640.000000) scale(0.100000,-0.100000)"
fill="#000000" stroke="none">
<path d="M3013 6380 c-24 -13 -69 -19 -175 -24 -117 -6 -148 -10 -169 -26 -16
-11 -35 -17 -48 -13 -25 6 -28 -12 -6 -41 8 -11 15 -29 15 -41 0 -11 6 -29 14
-40 7 -11 16 -33 19 -50 6 -33 24 -87 70 -215 30 -80 41 -170 24 -187 -4 -4
-26 -8 -48 -9 -22 -1 -48 -9 -57 -17 -9 -8 -33 -17 -52 -20 -36 -5 -123 -32
-150 -46 -9 -5 -31 -12 -50 -15 -19 -4 -48 -13 -65 -21 -16 -7 -64 -24 -105
-36 -41 -12 -84 -28 -95 -36 -11 -7 -31 -13 -45 -13 -14 0 -38 -9 -55 -20 -16
-11 -42 -20 -56 -20 -14 0 -44 -9 -67 -20 -22 -11 -57 -20 -76 -20 -29 0 -38
5 -51 30 -8 16 -15 36 -15 44 0 8 -6 27 -14 43 -20 40 -46 124 -46 148 0 11
-6 29 -13 40 -8 11 -27 62 -43 113 -22 72 -32 91 -44 87 -33 -13 -170 -98
-170 -106 0 -5 -7 -9 -15 -9 -25 0 -267 -191 -261 -207 4 -8 -2 -13 -17 -13
-14 0 -40 -18 -67 -45 -24 -25 -50 -45 -57 -45 -7 0 -13 -7 -13 -15 0 -8 5
-15 10 -15 6 0 10 -7 10 -15 0 -17 -5 -18 -28 -6 -13 7 -24 2 -46 -20 -25 -24
-26 -29 -12 -35 9 -3 16 -10 16 -15 0 -17 98 -99 118 -99 5 0 20 -9 33 -21 13
-11 53 -42 89 -70 36 -27 72 -56 81 -64 9 -8 19 -15 23 -15 4 0 23 -12 42 -26
48 -37 44 -62 -18 -138 -64 -77 -148 -192 -148 -202 0 -4 -7 -16 -17 -26 -9
-10 -21 -27 -27 -37 -6 -10 -36 -50 -66 -87 -31 -38 -69 -89 -85 -113 -17 -24
-37 -54 -45 -66 -32 -47 -56 -78 -78 -100 -12 -12 -22 -25 -22 -28 0 -11 -49
-55 -68 -61 -12 -4 -28 3 -46 19 -15 14 -40 32 -57 40 -16 9 -29 19 -29 24 0
5 -14 14 -30 20 -16 5 -30 15 -30 20 0 6 -14 18 -31 26 -16 9 -38 24 -47 33
-9 9 -42 34 -73 54 -30 20 -61 44 -68 52 -8 9 -19 16 -25 16 -14 0 -40 -47
-65 -120 -10 -30 -33 -89 -51 -130 -18 -41 -45 -124 -61 -183 -16 -60 -31
-113 -35 -118 -3 -5 -9 -30 -14 -57 -5 -26 -16 -83 -25 -126 -10 -51 -12 -83
-5 -90 5 -5 69 -10 142 -12 219 -4 414 -15 429 -25 16 -9 15 -131 -2 -474 -6
-110 -12 -276 -14 -369 -3 -123 -8 -172 -17 -178 -7 -4 -129 -8 -271 -7 -142
0 -261 -2 -265 -5 -10 -10 -1 -97 13 -135 7 -20 17 -58 20 -86 4 -27 13 -62
21 -77 8 -15 14 -38 14 -52 0 -13 6 -37 14 -53 17 -35 35 -86 47 -137 5 -21
16 -48 24 -60 8 -11 15 -30 15 -42 0 -12 6 -27 14 -33 8 -7 18 -27 22 -44 3
-18 24 -63 45 -100 22 -38 39 -74 39 -80 1 -19 96 -191 108 -195 7 -2 56 39
109 91 209 204 279 267 295 267 9 0 44 -28 77 -63 355 -366 449 -464 486 -510
17 -20 36 -35 43 -32 7 3 11 1 7 -4 -8 -14 5 -41 21 -41 7 0 21 -13 31 -30 9
-16 20 -30 24 -30 3 0 20 -14 38 -30 24 -23 31 -39 31 -68 0 -32 -5 -41 -32
-57 -18 -10 -69 -53 -113 -94 -43 -42 -106 -101 -138 -131 -115 -107 -118
-111 -96 -152 9 -16 17 -19 46 -13 32 6 34 5 23 -15 -9 -17 -7 -21 13 -29 12
-5 29 -16 36 -25 7 -9 19 -16 27 -16 7 0 17 -6 21 -13 4 -8 41 -33 81 -57 40
-23 75 -46 78 -51 3 -5 13 -9 23 -9 11 0 56 -25 102 -55 46 -30 91 -55 102
-55 16 0 93 -33 137 -59 29 -17 91 -41 106 -41 8 0 28 -10 43 -21 36 -26 47
-20 55 29 3 22 13 52 21 68 8 16 15 52 15 80 0 28 7 70 15 95 8 24 19 71 24
104 17 106 40 179 61 197 20 17 50 15 50 -3 0 -5 13 -9 29 -9 17 0 33 -4 36
-10 3 -5 25 -10 48 -10 23 -1 60 -8 82 -16 22 -8 76 -19 119 -24 44 -5 84 -14
90 -20 5 -5 29 -10 52 -10 23 0 60 -6 82 -14 22 -8 66 -17 98 -21 33 -3 82
-12 109 -20 28 -8 76 -17 107 -21 67 -6 104 -38 89 -77 -5 -12 -8 -33 -7 -47
1 -14 -3 -32 -10 -40 -6 -8 -15 -43 -18 -78 -4 -34 -14 -81 -22 -103 -7 -23
-14 -57 -14 -76 0 -18 -7 -50 -15 -70 -18 -43 -19 -83 -2 -84 68 -7 362 6 407
17 30 8 76 14 102 14 26 0 65 7 85 15 21 8 67 16 102 19 45 3 67 9 73 20 6 10
23 16 48 16 21 0 41 3 43 8 9 14 -12 52 -29 52 -12 0 -15 6 -10 25 5 19 -5 49
-34 108 -22 46 -40 86 -40 90 0 9 -54 130 -80 179 -20 37 -26 85 -12 103 14
20 50 38 142 75 30 12 69 27 85 35 17 8 57 26 90 41 33 14 88 39 121 55 34 16
67 29 74 29 7 0 33 11 59 24 25 14 75 37 111 51 36 15 72 33 81 41 8 8 24 14
35 14 10 0 36 11 58 23 53 33 84 26 92 -22 4 -20 12 -43 19 -51 8 -8 17 -27
20 -43 4 -15 11 -30 16 -33 5 -3 9 -14 9 -26 0 -11 9 -31 20 -45 11 -14 20
-31 20 -38 0 -18 39 -103 50 -110 6 -3 10 -19 10 -34 0 -32 34 -81 56 -81 8 0
22 8 32 18 9 9 33 28 52 42 59 41 210 171 295 253 160 155 176 172 190 197 7
14 22 34 34 44 12 11 21 24 21 30 0 12 -67 58 -190 132 -36 21 -87 53 -115 71
-27 19 -70 43 -95 55 -88 41 -100 72 -55 140 14 21 37 57 53 81 15 23 33 47
41 53 9 7 11 18 7 29 -4 11 1 25 15 39 29 29 149 222 149 239 0 8 7 18 15 21
9 3 21 19 26 36 6 16 15 30 19 30 4 0 13 14 19 30 5 17 14 30 20 30 5 0 13 10
17 23 4 12 17 36 30 53 13 17 24 36 24 43 0 7 14 30 32 52 30 38 60 50 73 29
3 -5 35 -24 71 -41 35 -17 64 -35 64 -41 0 -5 15 -16 33 -24 44 -20 126 -71
160 -100 16 -13 35 -24 44 -24 8 0 27 -9 41 -21 25 -19 27 -19 39 -2 8 9 11
24 8 31 -3 8 4 26 15 42 11 15 20 41 20 57 0 15 7 41 15 57 8 16 18 47 21 70
3 22 13 61 21 85 7 24 12 50 9 58 -3 7 3 36 14 64 11 27 20 68 20 91 0 22 7
76 16 118 8 43 14 97 12 121 l-3 44 -75 3 c-41 2 -142 -4 -225 -13 -82 -9
-179 -15 -214 -13 l-65 3 -12 48 c-7 26 -13 123 -14 215 -2 92 -9 221 -16 287
-19 158 -29 444 -17 474 9 23 10 23 224 27 276 6 299 8 310 25 11 17 2 69 -17
90 -8 8 -14 30 -14 48 0 17 -6 34 -14 37 -8 3 -13 20 -12 44 0 23 -6 46 -17
57 -9 11 -17 30 -17 42 0 12 -9 39 -19 59 -11 20 -26 53 -35 72 -33 78 -67
149 -106 215 -22 39 -45 82 -51 98 -15 36 -38 34 -89 -8 -23 -19 -45 -35 -48
-35 -4 0 -16 -7 -26 -15 -16 -12 -17 -17 -6 -30 8 -10 9 -15 1 -15 -6 0 -11 4
-11 9 0 18 -28 5 -72 -32 -23 -20 -72 -60 -108 -88 -36 -28 -70 -57 -76 -65
-7 -8 -26 -19 -43 -24 -26 -7 -33 -6 -38 8 -4 9 -16 27 -28 40 -12 12 -35 41
-51 65 -15 23 -33 47 -38 52 -6 6 -27 30 -47 55 -20 25 -47 56 -59 70 -12 14
-34 41 -49 60 -14 19 -28 37 -31 40 -3 3 -21 25 -40 50 -48 62 -47 61 -81 100
-37 42 -106 130 -135 174 -12 17 -29 37 -38 45 -9 7 -16 20 -16 27 0 13 87 88
309 266 58 46 106 89 109 96 2 8 -5 16 -16 19 -12 3 -28 16 -37 29 -8 13 -21
24 -28 24 -7 0 -26 14 -43 31 -16 17 -45 40 -64 52 -19 11 -51 33 -70 49 -19
15 -42 28 -52 28 -9 0 -22 9 -28 20 -6 11 -15 20 -21 20 -6 0 -52 24 -102 53
-51 30 -123 69 -162 87 -38 18 -78 40 -87 47 -23 21 -38 8 -38 -32 0 -19 -4
-36 -9 -40 -5 -3 -13 -20 -16 -38 -4 -17 -13 -43 -20 -57 -7 -14 -15 -43 -18
-65 -2 -22 -11 -56 -20 -75 -15 -36 -31 -93 -48 -170 -12 -59 -26 -68 -91 -59
-63 9 -174 40 -205 57 -12 7 -35 12 -50 12 -16 0 -38 7 -49 15 -10 8 -29 15
-41 15 -23 0 -117 27 -211 61 -30 10 -66 19 -80 19 -15 0 -36 7 -46 15 -11 8
-33 15 -48 15 -16 0 -39 6 -51 14 -12 8 -44 18 -70 21 -74 11 -95 47 -62 105
8 14 14 34 15 45 0 11 6 32 14 46 7 14 16 47 20 72 4 26 11 49 17 52 5 4 9 20
9 36 0 16 8 46 19 67 25 49 36 118 21 127 -6 4 -31 8 -54 10 -52 3 -86 13 -86
26 0 5 -58 8 -137 8 -110 -1 -144 -5 -170 -19z m1967 -590 c0 -5 -4 -10 -10
-10 -5 0 -10 5 -10 10 0 6 5 10 10 10 6 0 10 -4 10 -10z m-85 -371 c-3 -4 -12
-6 -20 -3 -8 4 -13 10 -10 15 3 4 12 6 20 3 8 -4 13 -10 10 -15z m-1505 -20
c19 -4 81 -13 138 -18 94 -10 154 -23 237 -52 17 -6 50 -15 75 -20 47 -10 118
-34 160 -56 14 -7 30 -13 36 -13 16 0 112 -48 191 -96 40 -24 77 -44 83 -44
11 0 154 -96 220 -149 25 -20 51 -40 59 -46 8 -5 68 -62 133 -125 108 -104
238 -255 238 -277 0 -5 16 -24 35 -43 32 -32 58 -72 108 -166 9 -19 22 -34 27
-34 6 0 10 -7 10 -16 0 -9 13 -42 29 -73 27 -54 57 -122 81 -188 7 -18 18 -33
25 -33 8 0 11 -8 8 -21 -3 -11 1 -44 10 -72 29 -95 47 -171 57 -237 5 -36 14
-85 19 -110 6 -25 10 -165 11 -312 0 -213 -3 -279 -16 -325 -8 -32 -19 -83
-24 -113 -10 -69 -39 -190 -51 -212 -5 -10 -9 -22 -9 -28 0 -21 -80 -211 -95
-226 -8 -9 -15 -23 -15 -31 0 -9 -6 -24 -13 -32 -7 -9 -22 -36 -32 -61 -10
-25 -27 -54 -37 -66 -10 -11 -18 -24 -18 -29 0 -4 -16 -32 -35 -61 -19 -29
-35 -55 -35 -59 0 -4 -23 -32 -50 -63 -30 -33 -49 -64 -47 -73 3 -11 -1 -15
-12 -13 -10 3 -25 -10 -41 -37 -27 -44 -175 -191 -204 -202 -12 -5 -15 -13
-11 -26 5 -16 2 -18 -16 -14 -13 4 -26 0 -33 -8 -37 -48 -227 -178 -358 -246
-51 -26 -59 -38 -30 -47 9 -3 -1 -3 -24 0 -32 4 -53 -1 -105 -28 -35 -19 -93
-44 -129 -57 -36 -13 -74 -27 -85 -31 -11 -5 -40 -12 -65 -16 -25 -3 -60 -12
-79 -20 -18 -8 -50 -14 -70 -14 -20 0 -63 -9 -95 -20 -53 -18 -86 -20 -335
-20 -152 1 -296 5 -321 11 -25 5 -81 15 -125 23 -81 13 -110 20 -200 51 -27 9
-61 19 -75 22 -29 5 -47 12 -113 42 -26 11 -54 21 -61 21 -7 0 -19 6 -25 14
-7 8 -25 18 -41 21 -16 3 -34 12 -40 20 -6 8 -25 17 -41 20 -16 4 -29 10 -29
15 0 4 -12 13 -27 19 -136 56 -429 298 -585 481 -94 111 -168 206 -168 217 0
4 -14 26 -30 47 -17 22 -30 48 -30 58 0 10 -9 23 -20 30 -11 7 -20 23 -20 35
0 13 -9 28 -20 35 -11 7 -20 22 -20 34 0 12 -7 27 -15 34 -8 7 -15 23 -15 35
0 12 -7 28 -15 35 -8 7 -15 20 -15 29 -1 9 -9 34 -20 56 -11 22 -19 47 -20 56
0 9 -7 22 -15 29 -8 7 -15 28 -15 46 0 18 -6 51 -14 71 -28 73 -56 203 -56
260 -1 32 -7 87 -15 123 -17 76 -19 333 -4 400 6 25 13 86 17 137 4 51 13 98
20 105 6 6 12 26 12 43 0 17 9 56 20 88 11 31 20 64 20 74 0 10 7 31 15 47 8
15 15 33 15 39 0 5 9 28 19 51 73 158 111 245 111 251 0 4 20 37 44 74 24 36
50 78 57 94 7 15 16 27 21 27 5 0 14 13 21 28 7 15 17 34 24 42 215 258 321
362 483 475 31 22 85 59 118 83 34 23 64 42 68 42 4 0 21 10 38 23 17 13 47
29 66 37 19 7 39 17 45 22 5 4 15 8 21 8 7 0 51 18 98 40 47 22 92 40 100 40
8 0 30 6 48 14 63 27 165 56 199 56 19 0 43 7 53 15 13 10 43 15 85 15 37 0
82 5 101 12 34 11 370 28 400 20 8 -2 31 -8 50 -13z m1360 -97 c0 -13 -12 -22
-22 -16 -10 6 -1 24 13 24 5 0 9 -4 9 -8z m-430 -158 c0 -2 -7 -4 -15 -4 -8 0
-15 4 -15 10 0 5 7 7 15 4 8 -4 15 -8 15 -10z m700 -178 c0 -3 -4 -8 -10 -11
-5 -3 -10 -1 -10 4 0 6 5 11 10 11 6 0 10 -2 10 -4z m-3523 -291 c-4 -8 -11
-15 -17 -15 -7 0 -7 6 0 21 13 23 26 19 17 -6z m-67 -81 c0 -8 -5 -12 -10 -9
-6 4 -8 11 -5 16 9 14 15 11 15 -7z m4140 -74 c0 -5 -2 -10 -4 -10 -3 0 -8 5
-11 10 -3 6 -1 10 4 10 6 0 11 -4 11 -10z m-5230 -30 c0 -5 -5 -10 -11 -10 -5
0 -7 5 -4 10 3 6 8 10 11 10 2 0 4 -4 4 -10z m165 -2830 c0 -8 -8 -16 -17 -18
-13 -2 -18 3 -18 18 0 15 5 20 18 18 9 -2 17 -10 17 -18z m4300 -60 c-3 -5
-11 -10 -16 -10 -6 0 -7 5 -4 10 3 6 11 10 16 10 6 0 7 -4 4 -10z m-2790 -269
c3 -5 1 -13 -5 -16 -15 -9 -43 3 -35 15 8 13 32 13 40 1z m-450 -41 c-3 -5
-10 -10 -16 -10 -5 0 -9 5 -9 10 0 6 7 10 16 10 8 0 12 -4 9 -10z m255 -880
c8 -5 12 -12 8 -15 -10 -10 -49 5 -43 16 8 11 16 11 35 -1z"/>
<path d="M2985 5205 c-33 -7 -97 -17 -142 -20 -51 -5 -87 -13 -94 -21 -6 -8
-30 -14 -53 -14 -22 -1 -52 -7 -66 -15 -14 -8 -34 -15 -45 -15 -11 0 -38 -9
-60 -20 -22 -11 -45 -19 -51 -20 -7 0 -25 -7 -40 -15 -16 -8 -36 -15 -44 -15
-8 0 -26 -9 -40 -20 -14 -11 -30 -20 -37 -20 -15 0 -133 -63 -190 -102 -23
-15 -46 -28 -51 -28 -4 0 -30 -20 -55 -45 -26 -25 -66 -57 -88 -71 -34 -21
-112 -90 -154 -134 -5 -6 -28 -30 -51 -53 -39 -41 -186 -223 -212 -262 -7 -11
-19 -33 -27 -50 -7 -16 -25 -45 -39 -64 -14 -19 -26 -40 -26 -45 0 -10 -61
-141 -81 -176 -23 -39 -89 -254 -89 -291 0 -18 -6 -40 -14 -48 -7 -9 -18 -61
-25 -116 -6 -55 -15 -122 -20 -150 -12 -69 -13 -247 -1 -325 6 -36 15 -106 21
-157 5 -51 16 -105 24 -120 8 -15 15 -41 15 -56 0 -15 6 -42 13 -60 8 -18 17
-50 21 -71 4 -22 14 -49 22 -60 8 -11 14 -27 14 -36 0 -24 84 -189 97 -190 6
0 9 -9 6 -20 -3 -12 1 -28 9 -38 8 -9 19 -28 26 -42 6 -14 32 -52 57 -85 25
-33 48 -67 51 -75 4 -8 29 -41 55 -72 27 -31 49 -61 49 -67 0 -5 9 -12 19 -16
11 -3 22 -14 26 -24 7 -22 182 -186 265 -248 154 -115 417 -263 466 -263 12 0
27 -7 34 -15 7 -8 22 -15 34 -15 11 0 43 -8 71 -19 91 -34 152 -51 182 -51 16
0 54 -8 84 -17 81 -25 613 -25 678 0 24 9 67 17 96 17 35 0 57 5 65 15 7 8 27
15 44 15 17 0 54 11 81 25 28 13 56 25 63 25 22 0 112 32 118 41 3 5 12 9 19
9 8 0 52 21 97 46 46 26 97 54 113 62 17 9 32 18 35 22 3 3 23 17 45 30 51 30
58 41 37 57 -21 16 -8 17 17 1 24 -15 51 -4 51 21 0 14 5 19 15 14 20 -7 278
242 339 327 134 187 286 453 286 501 0 8 6 23 13 34 7 11 24 54 36 95 13 41
28 89 33 105 6 17 14 57 18 90 4 33 15 89 24 123 16 56 17 98 12 338 -3 155
-9 282 -15 292 -6 11 -14 50 -20 88 -5 38 -14 83 -19 99 -22 62 -44 131 -49
158 -3 15 -13 33 -22 40 -9 6 -16 22 -15 35 1 12 -6 37 -16 55 -9 17 -21 43
-25 57 -4 14 -16 37 -27 52 -10 15 -24 42 -30 60 -6 18 -14 35 -17 38 -12 10
-51 69 -51 77 0 8 -54 81 -84 116 -9 9 -16 20 -16 25 0 6 -149 168 -181 197
-6 6 -23 22 -37 36 -91 87 -192 168 -205 163 -9 -3 -16 3 -20 15 -3 12 -16 25
-29 31 -12 6 -50 28 -83 50 -33 22 -67 42 -75 46 -8 3 -22 10 -30 15 -8 5 -22
12 -30 15 -8 3 -33 14 -56 25 -23 10 -46 19 -51 19 -6 0 -16 7 -23 15 -7 8
-21 15 -32 15 -11 0 -32 7 -46 15 -29 15 -117 40 -194 55 -26 5 -55 13 -65 18
-10 5 -52 13 -93 17 -41 4 -100 13 -130 21 -69 18 -332 17 -415 -1z m-830
-345 c-3 -5 -10 -10 -16 -10 -5 0 -9 5 -9 10 0 6 7 10 16 10 8 0 12 -4 9 -10z
m2615 -450 c0 -5 -4 -10 -10 -10 -5 0 -10 5 -10 10 0 6 5 10 10 10 6 0 10 -4
10 -10z m-3215 -138 c0 -18 -20 -15 -23 4 -3 10 1 15 10 12 7 -3 13 -10 13
-16z m2320 -112 c51 -17 77 -41 106 -95 23 -43 23 -46 10 -157 -6 -62 -16
-196 -21 -298 -5 -102 -13 -219 -19 -260 -6 -41 -13 -96 -16 -122 -7 -55 -20
-68 -77 -75 -24 -3 -52 -12 -63 -19 -11 -8 -32 -14 -48 -14 -15 0 -43 -6 -62
-14 -19 -8 -67 -18 -107 -21 -40 -3 -103 -13 -141 -22 -54 -12 -108 -14 -270
-10 -111 3 -218 10 -237 16 -19 6 -55 11 -80 11 -25 0 -63 5 -85 11 -22 6 -65
17 -95 24 -30 7 -73 21 -94 30 -21 9 -47 14 -57 12 -31 -8 -57 33 -69 108 -5
39 -15 156 -20 260 -5 105 -14 208 -20 230 -5 22 -10 100 -10 173 0 132 0 134
30 177 26 38 35 44 77 49 136 19 285 23 783 21 424 -1 554 -5 585 -15z m-1555
-1027 c33 -24 79 -49 113 -63 26 -12 27 -14 27 -96 0 -66 3 -86 15 -90 8 -4
15 -14 15 -23 0 -21 143 -131 170 -131 9 0 23 -7 30 -15 7 -8 20 -15 29 -15 9
0 25 -7 35 -15 11 -8 30 -15 41 -15 12 0 48 -9 81 -21 54 -19 81 -21 325 -22
226 -1 269 1 290 14 13 9 42 18 65 21 43 6 182 68 223 100 13 10 30 18 37 18
8 0 24 9 36 20 13 10 32 25 42 33 15 11 21 36 30 116 l11 103 40 27 c49 33
137 71 164 71 25 0 88 -42 118 -78 19 -23 22 -39 23 -107 0 -52 -5 -88 -14
-100 -7 -11 -16 -33 -20 -50 -20 -82 -150 -230 -260 -295 -94 -57 -160 -90
-177 -90 -9 0 -22 -7 -29 -15 -7 -8 -27 -15 -44 -15 -46 0 -76 -11 -76 -26 0
-10 -16 -14 -60 -14 -33 0 -77 -7 -97 -15 -28 -12 -87 -15 -294 -15 -197 0
-272 4 -316 15 -31 8 -74 15 -94 15 -21 0 -44 6 -51 13 -7 8 -34 16 -59 20
-24 3 -58 13 -74 21 -17 9 -38 16 -47 16 -9 0 -20 5 -23 11 -4 5 -31 21 -61
34 -97 43 -231 161 -290 255 -67 107 -74 129 -74 225 1 101 9 123 61 158 62
42 100 47 139 20z m310 -323 c0 -5 -4 -10 -10 -10 -5 0 -10 5 -10 10 0 6 5 10
10 10 6 0 10 -4 10 -10z m1370 -360 c0 -5 -7 -10 -15 -10 -8 0 -15 5 -15 10 0
6 7 10 15 10 8 0 15 -4 15 -10z m-1485 -30 c-3 -5 -13 -10 -21 -10 -8 0 -14 5
-14 10 0 6 9 10 21 10 11 0 17 -4 14 -10z m2335 -210 c0 -5 -2 -10 -4 -10 -3
0 -8 5 -11 10 -3 6 -1 10 4 10 6 0 11 -4 11 -10z m-110 -150 c0 -5 -5 -10 -11
-10 -5 0 -7 5 -4 10 3 6 8 10 11 10 2 0 4 -4 4 -10z m-260 -170 c0 -5 -4 -10
-10 -10 -5 0 -10 5 -10 10 0 6 5 10 10 10 6 0 10 -4 10 -10z m-2653 -56 c-9
-9 -28 6 -21 18 4 6 10 6 17 -1 6 -6 8 -13 4 -17z m333 -244 c0 -5 -7 -10 -15
-10 -8 0 -15 5 -15 10 0 6 7 10 15 10 8 0 15 -4 15 -10z"/>
</g>
</svg>
